<svg
xmlns="http://www.w3.org/2000/svg"
fill-rule="evenodd"
clip-rule="evenodd"
image-rendering="optimizeQuality"
shape-rendering="geometricPrecision"
text-rendering="geometricPrecision"
viewBox="0 0 14027 14027"
width="256"
height="256"
>
<defs>
  <clipPath id="a">
    <path
      d="M7014 0c3873,0 7013,3140 7013,7014 0,3873 -3140,7013 -7013,7013 -3874,0 -7014,-3140 -7014,-7013 0,-3874 3140,-7014 7014,-7014z"
      fill="#000000"
      class="color000 svgShape"
    ></path>
  </clipPath>
</defs>
<path
  fill="#f2e796"
  d="M7014 0c3873,0 7013,3140 7013,7014 0,3873 -3140,7013 -7013,7013 -3874,0 -7014,-3140 -7014,-7013 0,-3874 3140,-7014 7014,-7014z"
  class="colorf2e796 svgShape"
></path>
<g clip-path="url(#a)" fill="#000000" class="color000 svgShape">
  <path
    fill="#fed198"
    d="M8266 8101l0 530c0,190 96,358 250,453l-1162 940 -498 0 -1162 -940c154,-95 250,-262 250,-453l0 -448c63,42 128,83 197,123 124,74 523,256 911,256 396,-1 782,-188 910,-263 109,-65 210,-130 304,-198z"
    class="colorfed198 svgShape"
  ></path>
  <path
    fill="#fed198"
    d="M4588 3518c75,-2178 4763,-2371 4838,0 0,520 -5,977 -19,1382 126,-76 411,-112 460,153 56,300 -115,1406 -577,1247 -171,1038 -544,1534 -1328,1999 -128,75 -514,262 -910,263 -388,0 -787,-182 -911,-256 -699,-411 -1124,-892 -1349,-1951 -464,124 -692,-985 -633,-1306 42,-222 320,-229 460,-181 -21,-398 -31,-845 -31,-1350z"
    class="colorfed198 svgShape"
  ></path>
  <path
    fill="#ffdeb2"
    d="M4588 3518c60,-1743 3072,-2214 4313,-1119 32,120 51,247 56,382 0,1014 -57,1884 -142,2895 -178,1080 -566,1597 -1383,2081 -132,78 -534,272 -946,273 -404,1 -819,-189 -948,-265 -69,-41 -134,-81 -197,-123 -249,-314 -428,-717 -549,-1287 -464,124 -692,-985 -633,-1306 42,-222 320,-229 460,-181 -21,-398 -31,-845 -31,-1350z"
    class="colorffdeb2 svgShape"
  ></path>
  <path
    fill="#c9897b"
    d="M3995 3927c0,1166 647,1196 647,1196l-56 -1557c-22,-630 -326,-770 -489,-346 -61,157 -102,391 -102,707z"
    class="colorc9897b svgShape"
  ></path>
  <path
    fill="#c27767"
    d="M4334 4976c156,140 308,147 308,147l-56 -1557c-4,-133 -22,-244 -48,-332 -88,-20 -184,58 -254,239 -60,157 -101,392 -101,707 0,366 64,620 151,796z"
    class="colorc27767 svgShape"
  ></path>
  <path
    fill="#c27767"
    d="M9426 4055c0,0 -185,-627 -471,-675 -1677,-285 -3635,975 -4715,-54 -271,-259 -603,-932 -293,-1818 0,0 673,576 1858,352 431,-81 2309,-653 3160,226 387,401 404,707 461,1432l0 537z"
    class="colorc27767 svgShape"
  ></path>
  <path
    fill="#c9897b"
    d="M3947 1508c0,0 673,576 1858,352 431,-81 2309,-653 3160,226 86,89 233,251 292,416 -45,741 -3219,920 -3771,910 -992,-17 -1870,-668 -1539,-1904z"
    class="colorc9897b svgShape"
  ></path>
  <path
    fill="#add2ed"
    d="M8516 9084c44,27 92,48 144,62l2176 594c0,0 1158,342 1275,1394l250 2261c21,187 -33,355 -158,495 -125,139 -286,211 -474,211 -2912,0 -6335,0 -9248,0 -188,0 -349,-72 -474,-211 -125,-140 -179,-309 -158,-495l250 -2261c117,-1052 1275,-1394 1275,-1394l2176 -594c52,-14 100,-35 144,-62l1162 940 498 0 1162 -940z"
    class="coloradd2ed svgShape"
  ></path>
  <path
    fill="#e4eff7"
    d="M10934 14101l-8453 0c-188,0 -349,-72 -474,-211 -125,-140 -179,-308 -158,-495l251 -2261c17,-159 58,-301 116,-429 335,-327 749,-449 749,-449 1201,-328 2417,-481 3632,-458l259 226 498 0 226 -170c730,71 1457,205 2180,402 0,0 1054,311 1160,1269l229 2059c18,170 -31,323 -145,450 -22,25 -45,47 -70,67z"
    class="colore4eff7 svgShape"
  ></path>
  <polygon
    fill="#add2ed"
    points="7172 10024 6653 14101 8456 14101 7551 9986 7404 9986 7354 10024"
    class="coloradd2ed svgShape"
  ></polygon>
  <path
    fill="#c9897b"
    d="M9394 5128c-29,-1112 108,-921 -380,-1854 -220,-419 129,-971 494,-713 622,440 576,2428 -114,2567z"
    class="colorc9897b svgShape"
  ></path>
  <path
    fill="#c27767"
    d="M9394 5128c-29,-1112 108,-921 -380,-1854 -73,-139 -118,-443 40,-628 1,1 -1,322 337,738 339,415 140,1128 3,1744z"
    class="colorc27767 svgShape"
  ></path>
  <path
    fill="#eff4f7"
    d="M5694 9084l0 0 865 700 297 240-786 1034c-168 221-474 54-528-168l-401-1632 409-112c52-14 100-35 144-62zM8516 9084l0 0-1162 940 786 1034c168 221 474 54 528-168l402-1632-410-112c-52-14-100-35-144-62z"
    class="coloreff4f7 svgShape"
  ></path>
  <polygon
    fill="#fa96a2"
    points="6813 9986 6289 14101 7085 15162 7881 14101 7357 9986"
    class="colorfa96a2 svgShape"
  ></polygon>
  <polygon
    fill="#e67c89"
    points="7127 10378 7515 13988 7458 14101 7085 15162 7881 14101 7364 10037 7361 10018 7357 9986 7085 9986 7089 10024"
    class="colore67c89 svgShape"
  ></polygon>
  <path
    fill="#6b605d"
    fill-rule="nonzero"
    d="M5637 8991c61,-38 111,-91 145,-153 33,-61 52,-131 52,-207l0 -448 219 0 0 448c0,113 -28,220 -79,313 -53,94 -129,174 -223,232l-114 -185zm2739 -890l0 530c0,75 19,146 52,207 35,62 84,115 145,153l-114 185c-94,-58 -170,-138 -222,-233 -52,-93 -80,-199 -80,-312l0 -530 219 0z"
    class="color6b605d svgShape"
  ></path>
  <path
    fill="#6b605d"
    fill-rule="nonzero"
    d="M9683 4966c-56,-22 -84,-86 -62,-142 22,-56 85,-84 142,-62 54,21 103,55 142,106 32,43 57,98 70,165 31,170 -2,573 -112,890 -40,118 -92,227 -156,313 -73,96 -161,163 -266,183 -21,4 -41,6 -62,6 -89,481 -226,847 -433,1151 -222,326 -523,577 -929,817 -81,48 -263,140 -487,204l0 0c-146,42 -311,73 -478,74 -165,0 -330,-30 -477,-71 -223,-63 -409,-152 -489,-199 -362,-213 -653,-445 -885,-763 -218,-298 -380,-668 -495,-1164 -17,-1 -34,-3 -51,-6 -140,-26 -255,-131 -345,-277 -81,-131 -144,-297 -189,-463 -72,-271 -96,-554 -69,-698 9,-50 27,-92 50,-128 2,-3 5,-7 7,-10 25,-35 56,-64 91,-87 51,-33 118,-18 151,32 33,51 19,119 -32,151 -12,8 -22,18 -31,29l-3 5c-8,13 -15,29 -18,47 -22,118 1,361 66,603 39,148 94,294 163,404 59,96 127,163 198,177 22,4 44,3 69,-3l6 -2c60,-12 118,25 130,84 109,514 266,886 478,1178 211,290 482,504 819,702 70,41 235,120 438,177 131,37 276,64 418,63 144,0 288,-27 417,-64l1 0 0 0c200,-58 363,-140 436,-183 379,-225 657,-455 859,-752 203,-297 333,-665 416,-1164 0,-9 2,-17 5,-25 20,-57 82,-88 139,-68 29,10 54,12 76,8 47,-9 91,-45 131,-99 48,-65 90,-153 124,-253 98,-285 131,-636 104,-779 -6,-32 -16,-55 -29,-72 -13,-17 -29,-28 -48,-35zm-4920 1284l1 -1 -1 1z"
    class="color6b605d svgShape"
  ></path>
  <path
    fill="#6b605d"
    fill-rule="nonzero"
    d="M4406 4894c40 35 78 61 119 81l2 1-49-1405c-2-60 45-111 106-112 18-1 36 3 51 11l0 0c573 282 1343 130 2160-30 716-141 1467-289 2179-168 31 5 61 15 90 28l0 0 0 0c27 13 53 29 78 48 8 6 17 13 25 21l2 1 0 1 1 0c8 7 15 14 22 21 9 8 16 18 21 28l0 0c299 585 296 743 289 1176-1 95-3 205-2 337l1 27c36-29 69-65 99-108 113-159 185-403 217-675l1-3c32-278 22-580-32-848l0 0 0 0c-61-302-175-558-341-676l-6-5c-28-18-55-30-81-36-26-6-52-6-76-1-55 13-110-18-128-70l0 0c-88-248-281-432-516-563-305-170-681-249-999-262l-1 0c-540-12-968 78-1454 181-121 25-246 52-357 74-3 0-7 1-10 1-154 27-299 44-444 50-150 5-299-1-455-20l-9-2c-177-25-385-76-579-151-115-45-225-98-324-161-71 257-86 493-65 701 31 311 142 560 262 728 26 36 27 81 8 116l-4 9 0 0-8 21-2 4c-90 238-123 606-76 948 38 282 129 542 285 682l0 0zm23 278c-58-29-112-66-166-114l0 0-1 0c-200-179-314-487-358-816-51-374-13-782 87-1050-125-192-235-460-268-785-27-272 0-586 119-929 4-14 11-28 22-40 39-47 108-53 154-14 105 88 243 160 391 218 178 69 368 115 531 139l4 0c148 18 285 24 421 19 135-5 271-20 414-46l6-1c136-27 247-51 355-73 498-105 937-198 1502-185l5 0c347 13 759 102 1097 289 254 141 467 338 584 602 27 0 53 4 80 10 51 12 103 35 155 70l8 5c216 153 358 459 429 813l0 0c58 291 70 617 35 915l0 3c-36 306-122 586-256 776-96 136-216 228-363 257l0 0c-6 1-12 2-18 2-61 1-111-46-112-107-2-63-3-129-4-195l0 0c-2-135 0-246 2-343 6-387 9-532-257-1056l-2-1 0 0-16-13c-13-10-25-18-38-24l0 0c-11-5-22-9-33-11-673-114-1404 30-2101 167-782 154-1524 300-2135 81l49 1376c1 10 0 19-1 28-9 60-65 101-125 92-72-11-136-30-196-59zm5389-998c8-59 62-100 121-93l-121 93zM8473 9184c-55-24-81-88-57-144 24-55 88-80 143-57l137 59 2169 593 2 0 0 0c3 1 1228 362 1352 1487l251 2261c12 108 2 212-29 310-31 98-84 188-157 269-73 82-157 144-250 186-94 42-196 63-305 63l-3861 0 33-44-23-175 3851 0c79 0 151-15 216-44 65-29 125-73 177-131 52-58 89-122 111-191 22-67 28-141 20-219l-251-2261c-109-980-1194-1300-1197-1301l0 0-2174-594 0 0c-5-1-10-3-14-5l-144-62zm-2131 5027l-3861 0c-109 0-211-21-305-63-93-42-177-104-250-186-73-81-126-172-157-269-31-98-41-202-29-310l251-2261c124-1125 1349-1486 1352-1487l8-2 2171-592c21-6 41-13 60-21l0-1 0 0c20-9 38-18 55-28 51-32 118-16 150 35 32 51 16 119-36 150-27 17-55 32-83 44l0 0c-29 12-58 23-89 31l-2171 593-3 1c-3 1-1088 321-1197 1301l-251 2261c-8 78-1 152 20 220 22 68 59 132 111 190 52 58 112 102 177 131 65 29 137 44 216 44l3851 0-23 175 33 44z"
    class="color6b605d svgShape"
  ></path>
  <path
    fill="#6b605d"
    fill-rule="nonzero"
    d="M5694 8974l0 0 39 0 30 24 865 701 297 240 82 66-64 85-786 1034c-58 76-128 119-203 137-61 15-123 13-183-3-56-15-110-43-158-79-85-65-152-159-177-263l-402-1632-25-103 103-29 410-112 0 0c22-6 42-13 59-20l0-1c21-9 39-18 56-28l27-17 30 0zm796 895l-809-655-13 6 0 0c-31 13-60 24-89 32l0-1-307 84 376 1529c13 55 50 106 97 141 25 19 53 34 83 42 26 7 51 8 75 2 28-7 56-25 80-57l722-949-215-174zM8516 8974l0 0 31 0 27 17c17 10 35 20 55 28l0 1c17 7 37 14 59 20l0 0 410 112 103 29-25 103-402 1632c-25 104-92 198-176 263l-1 0c-48 36-102 64-158 79-60 16-122 18-183 3-75-18-145-61-202-137l-787-1034-64-85 82-66 1162-941 30-24 39 0zm13 240l-1024 829 722 949c24 32 52 50 80 57 24 6 49 5 75-2 30-8 58-23 83-42l0 0c47-36 84-86 97-141l376-1529-307-84 0 1c-29-8-59-19-89-32l0 0-13-6z"
    class="color6b605d svgShape"
  ></path>
  <path
    fill="#6b605d"
    fill-rule="nonzero"
    d="M6909 10096l-506 3975 682 909 682 -909 -506 -3975 -352 0zm-728 3992l524 -4115 12 -96 96 0 544 0 96 0 12 96 524 4115 6 44 -27 35 -796 1061 -87 116 -87 -116 -796 -1061 -26 -35 5 -44z"
    class="color6b605d svgShape"
  ></path>
</g>
<path
  fill="none"
  d="M7014 0c3873,0 7013,3140 7013,7014 0,3873 -3140,7013 -7013,7013 -3874,0 -7014,-3140 -7014,-7013 0,-3874 3140,-7014 7014,-7014z"
></path>
</svg>
