<svg xmlns="http://www.w3.org/2000/svg" data-name="Layer 1" viewBox="0 0 300 300" width="550"
    height="550">
    <defs>
        <clipPath id="a">
            <path fill="none"
                d="M131.34 104.88c-6.81 5.15-19.61-.3-28.59-12.18S92 67 98.83 61.87s19.62.3 28.6 12.18 10.73 25.68 3.91 30.83Z" />
        </clipPath>
        <clipPath id="b">
            <path fill="none"
                d="M75.75 260.7c-16.5-12.72-23.58-31.3-26.51-39-2.81-7.37-9.51-25.58-6.19-47.73 5.35-35.71 35.17-71.43 56.57-68.06 15.14 2.38 18.83 23.22 38 23.86 1.53.05 13.54.3 18.56-7.07 5.75-8.45-3.58-18.27.88-30.94 3.87-11 15.29-16.12 16.8-16.79 21.64-9.74 53.2 10.27 69.82 30.05 23.55 28 22.54 62 22.1 76.9-.52 17.75-1.21 40.87-16.79 60.11-19.67 24.27-50.27 26.58-96.35 30-34.03 2.62-56.99 3.97-76.89-11.33Z" />
        </clipPath>
        <clipPath id="c">
            <path fill="none" d="M128.49 266.72h26.15v1.35h-26.15z"
                transform="rotate(180 141.565 267.395)" />
        </clipPath>
        <clipPath id="d">
            <path fill="none"
                d="m172.31 267.6 1.07-.79a.21.21 0 0 1 .15-.05h8.17l13.06-11 .85 1-11.87 10-1.56 1.31h-9.71a.26.26 0 0 1-.16-.47Z" />
        </clipPath>
        <clipPath id="e">
            <path fill="none"
                d="M104.43 130c0 .37-.07.75-.11 1.12-.35 3.79-.8 7.23-1.26 10.26-.51 3.37-1 6.23-1.49 8.52-.71 3.59-1.51 6.93-2.44 10.4-1.44 5.36-3.21 11-5.54 18.2-.17.52-.34 1.06-.52 1.6-.73 2.28-1.53 4.72-2.38 7.35-1.15 3.57-3.23 10-5.54 16.33a303.57 303.57 0 0 1-21.93 46.85l-6.79-2.8c2.56-10.67 4-19 4.78-24.89.64-4.63 1.31-10.4 4.48-17.44 1.77-3.94 2.48-4.17 4.14-7.46 3.21-6.38 3.27-11.34 4-21.27.19-2.47.43-5.24.76-8.42.22-2.09.51-4.82.87-8.09.3-2.7.65-5.77 1-9.14a24.47 24.47 0 0 1-1.41-11.84c.62-4.54 2.68-9.59 5.32-11.25a17.51 17.51 0 0 1 5.17-2h.21c3.63-.66 9 1 10.61 1.48 3.79 1.08 6.56 1.98 8.07 2.49Z" />
        </clipPath>
    </defs>
    <g data-name="background 1" fill="#000000" class="color000 svgShape">
        <ellipse cx="150" cy="270.83" fill="#e5ded6" rx="126.4" ry="7.29"
            class="colore5ded6 svgShape" />
        <path fill="#898cfb"
            d="M163.72 180.23a16.23 16.23 0 0 1 6.05-13.34c6.91-5.89 1.72 14.97-6.05 13.34ZM160.19 194.25a16.23 16.23 0 0 1 13.23-6.25c9.05 0-8.36 12.52-13.23 6.25ZM155.29 208.19a16.22 16.22 0 0 1-7.29-12.72c-.66-9.03 13.17 7.38 7.29 12.72ZM153.87 220.37a16.2 16.2 0 0 1 12.94-6.85c9.04-.4-7.81 12.89-12.94 6.85ZM143 215.05a16.19 16.19 0 0 1-11.46-9.11c-4.03-8.13 14.89 1.97 11.46 9.11ZM152.22 184.66a16.21 16.21 0 0 0-9.75-10.92c-8.34-3.52 2.82 14.8 9.75 10.92ZM139 177a16.23 16.23 0 0 0-13.77-5c-9.04.86 9.47 11.7 13.77 5ZM137.47 170.53a16.23 16.23 0 0 0 8.62-11.83c1.68-8.9-13.88 5.88-8.62 11.83ZM141.43 193.83a16.2 16.2 0 0 0-12-8.46c-8.87-1.57 6.11 13.79 12 8.46ZM134.87 161.51a16.25 16.25 0 0 1-8.78-11.72c-1.8-8.87 13.91 5.69 8.78 11.72ZM156.75 166.19a16.22 16.22 0 0 0 8.72-11.77c1.76-8.88-13.92 5.77-8.72 11.77Z"
            class="color898cfb svgShape" />
        <path fill="#4436a2"
            d="M144.79 244.69c0-4-.11-7.92-.26-11.87s-.29-7.91-.52-11.86-.47-7.89-.82-11.83-.75-7.87-1.23-11.79-1-7.83-1.67-11.72-1.5-7.74-2.38-11.59a106.73 106.73 0 0 0-3.34-11.34 61.36 61.36 0 0 0-4.84-10.79l.07-.05a60.59 60.59 0 0 1 5.2 10.68 104.16 104.16 0 0 1 3.58 11.33 186.92 186.92 0 0 1 4.25 23.38c.94 7.87 1.54 15.77 1.86 23.69s.43 15.84.19 23.76ZM147.3 258.62c-.49-4.29-.77-8.6-1-12.92q-.1-3.24-.15-6.48v-6.48c.11-8.65.77-17.29 1.74-25.88.47-4.3 1.22-8.56 1.86-12.84l1.22-6.37c.21-1.06.39-2.13.62-3.19l.76-3.15c.52-2.1 1-4.21 1.55-6.3l1.78-6.23c.32-1 .61-2.08.94-3.1l1.07-3.06 2.14-6.12h.08l-1.91 6.2-1 3.08c-.31 1-.57 2.08-.85 3.12l-1.67 6.25c-.51 2.1-1 4.21-1.44 6.31l-.7 3.15c-.22 1.06-.4 2.12-.6 3.18l-1.17 6.36c-.62 4.27-1.34 8.52-1.78 12.81q-1.56 12.85-1.93 25.8a239.77 239.77 0 0 0 .52 25.85ZM152.72 248.46c-1.22-5.87-.81-11.93-.31-17.85.1-1.49.31-3 .5-4.45s.41-2.95.64-4.43c.43-2.95 1-5.88 1.53-8.81 1.25-5.83 2.58-11.64 4.16-17.38.83-2.86 1.6-5.73 2.47-8.58l2.77-8.49h.08l-2.4 8.58c-.79 2.87-1.5 5.75-2.26 8.63s-1.38 5.78-2.08 8.67-1.27 5.8-1.87 8.71c-1.16 5.83-2.17 11.69-2.86 17.59-.33 3-.61 5.92-.7 8.89a42.39 42.39 0 0 0 .41 8.87Z"
            class="color4436a2 svgShape" />
        <path fill="#da4557"
            d="m161.92 239.06-.43 3v.33l-.27 1.91-.6 4.21-1.3 9.12-.57 4.05-.66 4.61a1.56 1.56 0 0 1-.16.53 2 2 0 0 1-1.75 1.08l-7.08.15-7.08-.15a1.92 1.92 0 0 1-1.91-1.61l-3.87-27.25a1.9 1.9 0 0 1 2-2.09H160a1.89 1.89 0 0 1 1.92 2.11Z"
            class="colorda4557 svgShape" />
        <path fill="#b53749"
            d="m161.92 239.06-.43 3v.33c-5 .59-9.13.88-12.16 1-4.12.21-6.28.18-7.84 1.73-2 2-1.48 5.33-.92 8.62.67 4 1.28 7.59 4.61 10.35 5 4.12 11.8 2.89 12.75 2.7a2 2 0 0 1-1.75 1.08l-7.08.15-7.08-.15a1.92 1.92 0 0 1-1.91-1.61l-3.87-27.25a1.9 1.9 0 0 1 2-2.09H160a1.89 1.89 0 0 1 1.92 2.14Z"
            class="colorb53749 svgShape" />
        <path fill="#4436a2"
            d="M144.27 214.72c-1.59-1.36-2.89-2.84-4.26-4.23-.66-.72-1.35-1.4-2-2.06a16.62 16.62 0 0 0-2.33-1.82v-.09a8.4 8.4 0 0 1 2.71 1.35 16.74 16.74 0 0 1 2.28 2 32 32 0 0 1 3.7 4.8ZM154.51 220.14a7.72 7.72 0 0 1 2-1.47 12.16 12.16 0 0 1 2.23-.95 10.71 10.71 0 0 1 4.82-.47v.09a45.44 45.44 0 0 0-4.58 1.22 36.88 36.88 0 0 0-4.43 1.66ZM160.16 194.22a8.34 8.34 0 0 1 2.45-2.21 12.79 12.79 0 0 1 3-1.37 13.26 13.26 0 0 1 3.25-.56 10.35 10.35 0 0 1 3.27.34v.09a22.46 22.46 0 0 0-3.17.26 19.25 19.25 0 0 0-3.09.72 19.7 19.7 0 0 0-3 1.15 15 15 0 0 0-2.71 1.65ZM151.26 185c-.72-.83-1.41-1.6-2.11-2.37s-1.41-1.5-2.15-2.2-1.48-1.41-2.26-2.09-1.58-1.36-2.37-2.14v-.08a23.57 23.57 0 0 1 2.73 1.65 19.06 19.06 0 0 1 4.57 4.45 15.81 15.81 0 0 1 1.63 2.75ZM138 176.2c-1.07-.25-2.09-.48-3.1-.69s-2-.4-3-.53-2-.28-3.06-.38-2.07-.17-3.17-.34v-.09a22.48 22.48 0 0 1 3.18-.26 20 20 0 0 1 3.19.2 18.28 18.28 0 0 1 3.11.74 14.92 14.92 0 0 1 2.93 1.27ZM138.6 169a8.53 8.53 0 0 1 .14-3.3 13 13 0 0 1 3-5.82 10 10 0 0 1 2.53-2.09l.06.06a23.66 23.66 0 0 0-2 2.44 22.08 22.08 0 0 0-1.66 2.71 20.8 20.8 0 0 0-1.24 2.92 14.3 14.3 0 0 0-.72 3.09ZM164.21 180.7a8.53 8.53 0 0 1 .23-3.3 12.66 12.66 0 0 1 1.21-3.07 13.1 13.1 0 0 1 1.95-2.66 10.16 10.16 0 0 1 2.58-2l.07.06a22.59 22.59 0 0 0-2.1 2.39 21.38 21.38 0 0 0-1.73 2.67 20.24 20.24 0 0 0-1.32 2.88 14.76 14.76 0 0 0-.8 3.07ZM141 193.72a22.24 22.24 0 0 1-2.57-1.15c-.82-.41-1.6-.88-2.39-1.32s-1.55-.93-2.32-1.41-1.54-1-2.36-1.48v-.09a21.4 21.4 0 0 1 5.1 2.21 43.88 43.88 0 0 1 4.58 3.17ZM156 208.72a45.67 45.67 0 0 1-2.91-5.81c-.41-1-.84-2-1.23-2.95s-.82-2-1.21-3l.07-.05a29.29 29.29 0 0 1 3.18 5.68 55.32 55.32 0 0 1 2.19 6.14Z"
            class="color4436a2 svgShape" />
    </g>
    <g data-name="woman and doctor" fill="#000000" class="color000 svgShape">
        <path fill="#ada2b5"
            d="M231.53 208.08v3.31h-39.19c-.19 0-.34-.1-.34-.21v-2.9c0-.11.15-.21.34-.21Z"
            class="colorada2b5 svgShape" />
        <path fill="#ccccd0"
            d="M194.79 200.64v65.14c0 .31-.12.55-.26.55h-2.35c-.15 0-.26-.24-.26-.55v-65.14c0-.3.11-.55.26-.55h2.35c.14 0 .26.25.26.55ZM232.81 200.65v65.15c0 .3-.12.54-.26.54h-2.35c-.15 0-.26-.24-.26-.55v-65.14c0-.3.11-.55.26-.55h2.35c.14 0 .26.25.26.55Z"
            class="colorccccd0 svgShape" />
        <path fill="#ada2b5" d="M191.9 252.8h2.87v10.21h-2.87zM229.92 252.81h2.87v10.21h-2.87z"
            class="colorada2b5 svgShape" />
        <path fill="#ccccd0"
            d="M195.37 261.16h-4.08c-2.13 0-3.87 2.59-3.87 5.78 0 .3.16.55.37.55h11.09c.2 0 .36-.24.36-.55.01-3.19-1.73-5.78-3.87-5.78ZM233.39 261.17h-4.07c-2.14 0-3.88 2.59-3.88 5.78 0 .3.16.55.37.55h11.09c.2 0 .37-.24.37-.55 0-3.19-1.74-5.78-3.88-5.78Z"
            class="colorccccd0 svgShape" />
        <path fill="#da4557"
            d="M241.86 153.09v.22l-2.61 37.54v.47a6.61 6.61 0 0 1-7 6.13l-2.25-.15a6.41 6.41 0 0 1-2.79-.84 6.57 6.57 0 0 1-3.34-6.21l2.64-38a6.59 6.59 0 0 1 4-5.6 7.18 7.18 0 0 1 .92-.33 6.79 6.79 0 0 1 2.17-.2l2.12.14a6.6 6.6 0 0 1 6.14 6.83Z"
            class="colorda4557 svgShape" />
        <path fill="#b53749"
            d="M230.51 146.64a33.46 33.46 0 0 1 1.45 5.61c1 5.94-.18 8.86-1 15.95-1.45 12.14.43 16.56-3.09 26.63-.25.71-.47 1.28-.6 1.63a6.57 6.57 0 0 1-3.34-6.21l2.64-38a6.59 6.59 0 0 1 3.94-5.61Z"
            class="colorb53749 svgShape" />
        <path fill="#f3f2f6"
            d="M241.86 153.09v.22l-2.61 37.54v.47a6.55 6.55 0 0 1-2.36 4.61 6.56 6.56 0 0 0 .11-.93l2.65-41a7 7 0 0 0-6.13-7.59l-2-.16a6 6 0 0 1 2.17-.22l2.12.16a6.88 6.88 0 0 1 6.05 6.9Z"
            opacity=".22" class="colorf3f2f6 svgShape" />
        <path fill="#fccca8"
            d="M128.49 266.72h26.15a11.57 11.57 0 0 0-1.35-5 11.38 11.38 0 0 0-1-1.58v-.06a4 4 0 0 1-.66-2.25l5.27-9.18-7.14-3.06c-2.95 7-5.48 12-6.32 13.15a7.61 7.61 0 0 1-1.91 1.79l-.88.45c-.26.14-.54.27-.82.4a35.28 35.28 0 0 1-9.72 2.94Z"
            class="colorfccca8 svgShape" />
        <path fill="#da4557"
            d="M128.49 266.72h26.15a11.57 11.57 0 00-1.35-5 11.38 11.38 0 00-1-1.58v-.06a2.39 2.39 0 00-1.3-.05 3.28 3.28 0 00-1.58 1.24 13.35 13.35 0 01-2.31 2.07c-.88.51-6.18 2.91-11 1.2a2.57 2.57 0 01-1.57-1.18 36.66 36.66 0 01-4.43 1 2.56 2.56 0 00-1.61 2.36zM233.2 192.09h-.07a129.21 129.21 0 01-22 1.93h-.18a128.3 128.3 0 01-22.21-1.94h-.07a5.64 5.64 0 000 11.22 101.44 101.44 0 0022.14 2.52h.18a100.65 100.65 0 0022.33-2.51 5.64 5.64 0 000-11.22z"
            class="colorda4557 svgShape" />
        <path fill="#2a1e4d"
            d="M205.8 176.89q-10.63 4-21.42 8.16-9 3.48-17.87 7a5.76 5.76 0 0 0-3.53 4.2c-1.13 5.57-2.49 11.37-4.11 17.36a284.82 284.82 0 0 1-10.87 32.3l8.05 4.44c3.85-5.25 6.81-9.84 8.91-13.27 7.81-12.77 8.83-17.82 9.18-20.41a33.41 33.41 0 0 0 0-9.18c1.49-.42 3.65-1 6.25-1.8 3.76-1.1 8.8-2.6 13.9-4.19 19.94-6.23 21.11-6.79 21.68-8.29 1.9-4.94-5.43-12.21-10.17-16.32Z"
            class="color2a1e4d svgShape" />
        <path fill="#fab598"
            d="m182.38 180.11 1.18 1.51.23.3-3.33 4.86-3.2 4-1.36 3.26-.55-.25v-.94l-.85 2.21-.5-.06.28-2.7 1.17-4.42-3 7.1-.55-.26.69-3.63a2.81 2.81 0 0 1 .08-.31l1.11-3.67-1.14 2.43-1.13 4.46a.4.4 0 0 1-.56.28.44.44 0 0 1-.24-.46l.77-5.26 2.84-5.41a1.72 1.72 0 0 1 1-.87l4.76-1.46 1.2-.37.43-.13Z"
            class="colorfab598 svgShape" />
        <path fill="#fab598"
            d="m201.21 132.08-7 27.47-15.44 22.19 4.21 2.31s18.52-15.79 19.56-18.69 8.31-28.75 8.31-28.75Z"
            class="colorfab598 svgShape" />
        <path fill="#f8b321"
            d="M200 132.53a128.08 128.08 0 0 0-5.11 18l14.67 5.11a82.93 82.93 0 0 0 3.62-21.12c0-2.25 0-5-1.86-7.07-1.51-1.72-4.1-2.84-6.31-2.16-2.41.71-3.59 3.25-5.01 7.24Z"
            class="colorf8b321 svgShape" />
        <path fill="#fccca8"
            d="M172.47 268.07h7.67l1.56-1.31 13.06-11a11.06 11.06 0 0 0-4.11-2.83 10.06 10.06 0 0 0-1.75-.53h-.07a3.42 3.42 0 0 1-1.9-1.26c-.66-.79-1.4-5.06-1.53-11l-8.17 1 4.08 15.3a11.51 11.51 0 0 1 .06 1.69 3.57 3.57 0 0 1-.25 1.27c0 .1-.18.42-.34.85a4.86 4.86 0 0 1-1.63 2.19 20.62 20.62 0 0 1-2.13 1.59 18 18 0 0 0-4.55 4.04Z"
            class="colorfccca8 svgShape" />
        <path fill="#da4557"
            d="M172.47 268.07h7.67l1.56-1.31 13.06-11a11.06 11.06 0 0 0-4.11-2.83 10.06 10.06 0 0 0-1.75-.53h-.07a2.39 2.39 0 0 0-1 .77 3.12 3.12 0 0 0-.39 1.91 13.45 13.45 0 0 1-.42 3c-.22.66-1.57 4.49-5.26 5.89a6.75 6.75 0 0 1-4.38.33l-.39-.13-3.54 2.65-.07.05-1.07.79a.26.26 0 0 0 .16.41Z"
            class="colorda4557 svgShape" />
        <path fill="#4a31a1"
            d="M214 177.91c-13.23.83-41 18.35-44.73 20.75a4.13 4.13 0 0 0-2.2 1.69 4.26 4.26 0 0 0-.33 3.57 274.89 274.89 0 0 1 4.41 16.84 276.3 276.3 0 0 1 5.1 29.58l10.21-1c.19-4.37.37-9.33.51-14.79.24-10 .12-13.57-1.53-17.86a28 28 0 0 0-4.09-7.14 338.94 338.94 0 0 0 28.57-9.18c9.29-3.44 14.07-5.69 15.3-10.2a10.45 10.45 0 0 0-3.06-10.2c-2.85-2.4-6.57-2.16-8.16-2.06Z"
            class="color4a31a1 svgShape" />
        <path fill="#4a31a1"
            d="M228.24 189.13c-.87 3-3.59 4.62-6.12 6.12a25.1 25.1 0 0 1-8.16 3.06l-13.11-16.13-.15-.19a33.35 33.35 0 0 0-1.7-13.87l18.54-3.78 3.52-.71.12.38c.46 1.51 1.2 3.79 2.22 6.52 1.44 3.81 2.79 6.66 3.76 9.92a33.23 33.23 0 0 1 1 4.6 8.7 8.7 0 0 1 .08 4.08Z"
            class="color4a31a1 svgShape" />
        <path fill="#261b66"
            d="M227.2 180.45c-5.69.79-19 2.43-26.35 1.73l-.15-.19a33.35 33.35 0 0 0-1.7-13.87l18.54-3.78 3.64-.33c.46 1.51 1.2 3.79 2.22 6.52 1.48 3.81 2.83 6.66 3.8 9.92Z"
            class="color261b66 svgShape" />
        <path fill="#fcd941"
            d="M226 176.48c-.5.14-1 .27-1.57.4a48.68 48.68 0 0 1-19.61.67 47.91 47.91 0 0 1-5.66-1.31l.12-5.82v-.2l.27-13.56V154.61A10.65 10.65 0 0 1 195 150a7.46 7.46 0 0 1-.82-2.65 8 8 0 0 1 1.14-4.61l.12-.2.17-.31c.39-.67 1.49-3.85 3.68-10.22.3-.85.62-1.85.95-3l.06-.21c.33-1.15.66-2.44 1-3.87.21-1 .41-2 .59-3 .09-.07.26-.21.51-.39a8.89 8.89 0 0 1 6-1.64 8.61 8.61 0 0 1 1.41.26 9.12 9.12 0 0 1 4.3 2.73c.61 1.42 1.16 2.79 1.66 4.1.15.4.3.8.45 1.18 0 .07 0 .14.07.2a112.634 112.634 0 0 1 3.41 10.94c.2.79.38 1.53.55 2.26v.2c.74 3.28 1.27 6.61 2.37 13.57v.2c.48 3 1.06 6.75 1.8 11.43.12.74.24 1.47.35 2.16v.2c.55 2.99.95 5.46 1.23 7.15Z"
            class="colorfcd941 svgShape" />
        <path fill="#f8b321"
            d="M218.26 149.59a36.58 36.58 0 0 1-3.46 15.47 35.57 35.57 0 0 1-10 12.49 47.91 47.91 0 0 1-5.66-1.31l.12-6c1.2-3.25 16.53-35.72 16.53-35.72a41.57 41.57 0 0 1 2.47 15.07Z"
            class="colorf8b321 svgShape" />
        <path fill="#ffffff"
            d="M220.25 141.73a151 151 0 0 1-16.63 1.1h-2.33c-2.15 0-4.17 0-6-.11l.12-.2c2.47.09 5.25.13 8.23.09a155.39 155.39 0 0 0 16.59-1.1c-.01.09.01.16.02.22ZM222.65 155.5a152.84 152.84 0 0 1-17.19 1.16h-5.91v-.21c1.85 0 3.83.05 5.91 0a154.58 154.58 0 0 0 17.16-1.16ZM224.83 169.29a152.9 152.9 0 0 1-17.53 1.21h-2.33c-2 0-3.93 0-5.69-.1v-.2c2.42.08 5.12.11 8 .08a154.71 154.71 0 0 0 17.5-1.21Z"
            class="colorfff svgShape" />
        <path fill="#fccca8"
            d="m187.92 183.53.88 1.83.18.37-4.78 4-4.41 3.27-2.27 2.94-.51-.39.18-1-1.46 2-.48-.2 1-2.66 2.35-4.16-4.93 6.4-.52-.4 1.63-3.49c.05-.1.1-.2.16-.3l2.11-3.41-1.83 2.16-2.34 4.18a.45.45 0 0 1-.67.14.45.45 0 0 1-.14-.53l2.12-5.11 4.39-4.73a1.86 1.86 0 0 1 1.32-.61l5.46-.23h1.86Z"
            class="colorfccca8 svgShape" />
        <path fill="#fccca8"
            d="M216.37 141.06a6.24 6.24 0 0 1-.26 2.11c-1.08 3.63-2.56 8.56-3.94 13.07-1.66 5.45-3.15 10.3-3.6 11.48-1.14 3-21.54 19.46-21.54 19.46l-4.64-2.41 17-23.1 2.38-8.86 5.29-19.73 5.56 2.46a6.3 6.3 0 0 1 3.75 5.47Z"
            class="colorfccca8 svgShape" />
        <path fill="#fcd941"
            d="M216.38 153.69v.21c-.06 1.49-.12 2.74-.17 3.67a34 34 0 0 1-16.15-5.32l.45-1.82a1.46 1.46 0 0 1 .05-.2q.93-3.79 1.85-7.59c.28-1.11.55-2.22.82-3.33 0-.07 0-.13.05-.2l1-3.92a7 7 0 0 1 4.95-5.15l.28-.07a5.57 5.57 0 0 1 3.88.2c2.07 1.12 2.47 4.09 2.66 5.93 0 .32.07.65.1 1 .13 1.44.22 2.94.28 4.45v.63c.14 4.15.06 8.33-.05 11.51Z"
            class="colorfcd941 svgShape" />
        <path fill="#ffffff"
            d="M216.4 141.73a73.06 73.06 0 0 1-13.17-2.42c0-.07 0-.13.05-.2a73.22 73.22 0 0 0 13.11 2.42c0 .06.01.13.01.2ZM216.38 153.69v.21a74.89 74.89 0 0 1-15.87-3.47 1.46 1.46 0 0 1 .05-.2 74.56 74.56 0 0 0 15.82 3.46Z"
            class="colorfff svgShape" />
        <path fill="#f8b321"
            d="M216.82 129.91c-4 1.27-5.84.65-6.74-.15-1.36-1.21-1-3.18-2.66-3.88-1.07-.46-1.72.17-3.47-.21a6.88 6.88 0 0 1-2.66-1.22c.09-.32.17-.65.25-1 .12-.55.21-1.07.28-1.57.09-.07.26-.21.51-.39a23.88 23.88 0 0 1 7.44-1.38 9.12 9.12 0 0 1 4.3 2.73c.61 1.42 1.16 2.79 1.66 4.1.15.4.3.8.45 1.18 0 .07 0 .14.07.2.2.55.39 1.07.57 1.59Z"
            class="colorf8b321 svgShape" />
        <path fill="#ffbb9c"
            d="M201.52 113v4c0 1.51 0 3 .05 4.51a3.4 3.4 0 0 0 3.29 3.35h.14a3.39 3.39 0 0 0 3.46-3.83l-.72-5.4c-.14-1-.27-2.08-.41-3.11Z"
            class="colorffbb9c svgShape" />
        <path fill="#fab598" d="M201.52 113v4c1.05-.2 3.62-.71 6.15-1.37-.13-1-.25-1.95-.38-2.92Z"
            class="colorfab598 svgShape" />
        <path fill="#fccca8"
            d="M205.23 92a39.29 39.29 0 0 1-2.54 3.67c-2.09 2.7-2.6 2.45-3.69 4.14-1.46 2.25-1.83 4.55-2.32 7.59a19.38 19.38 0 0 0-.24 2.76 6 6 0 0 0 .11 2c.58 1.51 3.11 1.86 4.83 2.08a16.76 16.76 0 0 0 7.82-.44c5.92-2.06 12.38-9.72 9.7-15.85-1.81-4.23-7.46-6.81-13.67-5.95Z"
            class="colorfccca8 svgShape" />
        <path fill="#8d3025"
            d="M227 127.24a18.68 18.68 0 0 1-2-4.76s.16 2.41.53 5c-1.35.24-2.79.44-4.31.58-.34-1.52-.82-3.57-1.36-5.62 0 0-.24 3.11-.25 5.75-1 .06-2 .09-3 .1a54.7 54.7 0 0 1-7.06-.43c-.83-3-1.46-5.46-1.9-7.31-.82-3.47-1-4.48-.75-5.69a9.63 9.63 0 0 1 3.24-5.54 5 5 0 0 0 2.46.52h.41a3.65 3.65 0 0 0 2.18-1.14c1.21-1.38 1.37-4 .13-4.72a3 3 0 0 0-3.11.56c-.31-1.3-.79-3.18-1.48-5.4-1.25-4-1.57-4.38-1.84-4.61-1.93-1.68-5.06.07-5.57-.66s1-3.18 3.47-4.61c5-2.89 13.55-.68 17.48 4.81l.19.28a15.41 15.41 0 0 1 2.29 8.58c0 7-.24 10.64-.14 14.41a59.43 59.43 0 0 0 1.08 9.76Z"
            class="color8d3025 svgShape" />
        <path fill="#8d3025"
            d="m214.9 98.53-3.16 7.32a11.33 11.33 0 0 1-3.7-1.69 11.66 11.66 0 0 1-3.79-4.44l3.6-5.78-4.21 5.52a9.17 9.17 0 0 1-1.81-1 9 9 0 0 1-1.93-2 9.86 9.86 0 0 1 2.17-4.48 10.13 10.13 0 0 1 6.12-3.31 12.69 12.69 0 0 1 3.57 2.79 13.06 13.06 0 0 1 3.14 7.07Z"
            class="color8d3025 svgShape" />
        <path fill="#561b14"
            d="M223.15 96.26A16.54 16.54 0 0 1 225 101a20.09 20.09 0 0 1 .45 5.13 19 19 0 0 1-.9 5.08 25.6 25.6 0 0 1-.92 2.39 18 18 0 0 1-1.29 2.21h-.08a26.08 26.08 0 0 0 .83-19.51ZM220.7 100.28a7.35 7.35 0 0 1 .63 2.71 11.1 11.1 0 0 1-.2 2.76 12 12 0 0 1-.85 2.62 8.56 8.56 0 0 1-1.52 2.31h-.08a23.87 23.87 0 0 0 1.59-5.07 18.08 18.08 0 0 0 .34-5.29ZM216.61 128.33a54.7 54.7 0 0 1-7.06-.43c-.83-3-1.46-5.46-1.9-7.31-.82-3.47-1-4.48-.75-5.69a9.63 9.63 0 0 1 3.24-5.54 5 5 0 0 0 2.46.52 12 12 0 0 0-.37 7.1c.7 3.41 2.77 8.02 4.38 11.35Z"
            class="color561b14 svgShape" />
        <path fill="#4a31a1"
            d="M171.36 104.29a2.67 2.67 0 0 1 2.9-.22c1.48.89 3.49 3.26 4.23 2.34s-1.91-2.52-1.91-2.52l-2-1.33a4.8 4.8 0 0 1 3.33 1.72c1.29 1.66 2.29 2.78 2.51 1.49s-2-3.15-2.56-3.5a9.9 9.9 0 0 0-1.38-.72 5.22 5.22 0 0 1 2.64.58c.72.61 1.34 2.13 1.79 2.44s.93.08 1-.52-1.2-2.58-2.23-3.5-3.71-1.66-4.65-1.09-4.28 2.98-3.67 4.83Z"
            class="color4a31a1 svgShape" />
        <path fill="#6f6ac7"
            d="M164.6 113.21s3.33-2.13 5.07-2.26 4.8-3.65 6.15-4.82 4.17-2.88 3.85-3.87-.38-1.69-2.6.1-3.73 2.4-4.33 2a10.85 10.85 0 0 1 .74-3 6.65 6.65 0 0 1 3.5-1.58c.6.08 4.38 2.44 5.7 1.8s-6.16-3.87-6.16-3.87-5.58.92-6.93 2.09-2.82 6.88-4.22 7.47-5.65 2.63-5.65 2.63Z"
            class="color6f6ac7 svgShape" />
        <path fill="#ffffff" d="M180.78 89.82h.66v23.66h-.66z"
            transform="rotate(-74.75 181.1 101.655)" class="colorfff svgShape" />
        <path fill="#ffffff"
            d="M193 105c-.09.27-.57.35-1.07.17s-.83-.54-.73-.81.58-.35 1.08-.17.81.58.72.81Z"
            class="colorfff svgShape" />
        <path fill="#898cfb"
            d="M166.31 114.93c-4.16.89-10 2-16.94 3.19-8.51 1.46-17.1 2.64-17.41 1.51-.2-.76-1.73-4.65-3.66-9.49-3.8-9.52-9.17-22.68-9.17-22.68l3.63-16.69a32.88 32.88 0 0 1 5.6 6.57 12.64 12.64 0 0 1 1.15 2.42c1.43 4.3 10.84 27.81 10.84 27.81l25.35-2a12.21 12.21 0 0 1 1.23 4.09 12 12 0 0 1-.62 5.27Z"
            class="color898cfb svgShape" />
        <path fill="#6f6ac7"
            d="M129.92 93.46c0 .83-.19 3.06-.65 7.5-.32 3-.69 6.36-1 9.18-3.8-9.52-9.17-22.68-9.17-22.68l3.63-16.69c1.62 3.8 2.83 7 3.68 9.4 3.32 9.18 3.48 12.03 3.51 13.29Z"
            opacity=".55" class="color6f6ac7 svgShape" />
        <path fill="#fccca8"
            d="M69.72 268.07h-7.4l-1.5-1.27-12.6-10.64a10.88 10.88 0 0 1 4-2.73 10.34 10.34 0 0 1 1.7-.51h.06a4.14 4.14 0 0 0 1.83-1.22c.64-.7 2.36-4.62 4-10.25l5.88 1.79-5 11.92a30.94 30.94 0 0 0 .66 4.58c0 .1.18.41.34.83a4.68 4.68 0 0 0 1.58 2.12 22.22 22.22 0 0 0 2 1.53 17.62 17.62 0 0 1 4.45 3.85Z"
            class="colorfccca8 svgShape" />
        <path fill="#2a1e4d"
            d="M69.72 268.07h-7.4l-1.5-1.27-12.6-10.64a10.88 10.88 0 0 1 4-2.73 10.34 10.34 0 0 1 1.7-.51h.06a2.28 2.28 0 0 1 1 .74 3 3 0 0 1 .38 1.84 13.61 13.61 0 0 0 .4 2.89c.22.63 1.52 4.32 5.08 5.68a6.51 6.51 0 0 0 4.22.31c.13 0 .26-.08.38-.12l3.42 2.55.06.05 1 .77a.25.25 0 0 1-.2.44Z"
            class="color2a1e4d svgShape" />
        <path fill="#2a1e4d"
            d="m69.87 267.62-1-.77a.24.24 0 0 0-.14-.05h-7.91l-12.6-10.64-.82 1 11.45 9.67 1.5 1.27h9.37a.25.25 0 0 0 .15-.48Z"
            class="color2a1e4d svgShape" />
        <path fill="#fccca8"
            d="M123.68 266.77H98.45a11.24 11.24 0 0 1 1.31-4.77 10.25 10.25 0 0 1 1-1.52v-.06a3.25 3.25 0 0 0 .64-2.17l-.8-11.69 7.5-.33.45 10.48a5 5 0 0 0 2.59 4.14l.84.44.8.38a33.52 33.52 0 0 0 9.37 2.84 2.48 2.48 0 0 1 1.53 2.26Z"
            class="colorfccca8 svgShape" />
        <path fill="#2a1e4d"
            d="M123.68 266.77H98.45a11.24 11.24 0 0 1 1.31-4.77 10.25 10.25 0 0 1 1-1.52v-.06a2.3 2.3 0 0 1 1.25 0 3.11 3.11 0 0 1 1.52 1.2 13.59 13.59 0 0 0 2.23 2c.85.49 6 2.8 10.6 1.15a2.46 2.46 0 0 0 1.52-1.13 35.82 35.82 0 0 0 4.27.92 2.48 2.48 0 0 1 1.53 2.21ZM98.45 266.77h25.23v1.3H98.45z"
            class="color2a1e4d svgShape" />
        <path fill="#561b14"
            d="M115 194.58c0 2-.12 4-.12 4a60.76 60.76 0 0 1-.83 6.53s-.06.33-3.83 43.09h-9.57c-.59-11.2-1.33-19.88-1.92-25.85s-.42-11.78-.87-17.65c0 0-.57-7.41.75-10.69a6.76 6.76 0 0 0 .39-1.47 6.13 6.13 0 0 0-.54-3.4Q96 184 93.59 178.48c-.81-1.88-1.63-3.79-2.43-5.72-2.92-7-5.5-13.81-7.78-20.31a18.18 18.18 0 0 1-6.49-9.23c-2.19-7.61 1.47-15.5 5.53-18.55l.34-.24a13.94 13.94 0 0 1 21 5.31 12.74 12.74 0 0 1 .6 1.36 2.36 2.36 0 0 1 .12.28c.5 2.8 1 5.46 1.46 8 .1.5.2 1 .29 1.5.38 1.9.73 3.71 1.07 5.43 1.11 5.49 2.11 10.13 2.93 13.8-.04-.01 4.77 21.28 4.77 34.47Z"
            class="color561b14 svgShape" />
        <path fill="#561b14"
            d="M99.13 160.28c-1.44 5.36-3.21 11-5.54 18.2-.17.52-.34 1.06-.52 1.6-7.81-1-15-2.41-19.21-3.33.19-2.47.43-5.24.76-8.42.22-2.09.51-4.82.87-8.09Z"
            class="color561b14 svgShape" />
        <path fill="#898cfb"
            d="M127 94.05a12 12 0 0 1-1.55 3.27l-.13.21c-.21.32-.44.65-.68 1l-1.82 2.47c-.83 1.18-1.77 2.54-2.81 4.19a41.7 41.7 0 0 0-3.42 5.35c-.55 1-1.09 2.14-1.6 3.34a41 41 0 0 0-2.82 10.1v.17a41 41 0 0 0-.21 9.35c.6 7.43 1.7 23 3.27 43.56L102 175.91l-2.88-.25 1.17-21.46v-.2l-5.21 21.3-22.13-2-6.21-.55c.26-13.75 3.15-32.53 15.13-49.44 1.33-1.87 2.7-3.62 4.1-5.27 2.25-3.67 4.53-7.7 6.74-12.11a159.14 159.14 0 0 0 7.74-18.19c.53-1.6 1-3 1.36-4.36.21-.72.42-1.4.61-2 0-.13.07-.27.11-.4s.26-.88.35-1.15l.87-8.79a42 42 0 0 1 14.11-3.68 7.67 7.67 0 0 1 4.37 2 7.45 7.45 0 0 1 1.86 2.87c.79 5.65 1.7 10 2.42 13.09s1.33 5.56.49 8.73Z"
            class="color898cfb svgShape" />
        <path fill="#8d3025"
            d="M120.62 37.94c-.62 1-1.24 2-1.76 3a29.93 29.93 0 0 0-1.49 3.06 16.59 16.59 0 0 0-1.54 6.4 8.63 8.63 0 0 0 .45 3.15 10.28 10.28 0 0 0 1.55 2.8 12.22 12.22 0 0 0 2.42 2.28c.43.37.92.66 1.39 1s1 .58 1.49.9v.08a15.65 15.65 0 0 1-5.78-3.8 9.32 9.32 0 0 1-2.35-6.42 16.39 16.39 0 0 1 1.8-6.69 28.29 28.29 0 0 1 3.8-5.82Z"
            class="color8d3025 svgShape" />
        <path fill="#ffbb9c"
            d="M128.36 61.45c-.63 1.49-1.25 3-1.89 4.49l-2.1 5a4.13 4.13 0 0 1-5.28 2.19h-.08a4.11 4.11 0 0 1-2.24-5.87l3.23-5.72 1.88-3.27Z"
            class="colorffbb9c svgShape" />
        <path fill="#fab598"
            d="M128.36 61.45c-.63 1.49-1.25 3-1.89 4.49-1.11-.71-3.83-2.48-6.43-4.4l1.76-3.07Z"
            class="colorfab598 svgShape" />
        <path fill="#fccca8"
            d="M142.2 47a42 42 0 0 0-.92 4.79c-.49 3.7.09 3.9-.39 6.05-.64 2.86-2.15 4.91-4.14 7.62a20.07 20.07 0 0 1-2 2.3 6.51 6.51 0 0 1-1.61 1.41c-1.62.71-3.83-1-5.32-2.16a18.45 18.45 0 0 1-5.65-6.44c-2.93-6.19-1.91-17.1 4.92-19.71 4.67-1.73 11 .69 15.11 6.14Z"
            class="colorfccca8 svgShape" />
        <path fill="#842e20"
            d="M142.19 50c-1 .17-2-3.62-4.78-3.83-.39 0-.95 0-5 2.09-2.27 1.16-4.1 2.23-5.35 3a5 5 0 0 0-.69-1.87 2.15 2.15 0 0 0-1.25-1c-1.18-.21-2.65 1.47-3 3.1a6.68 6.68 0 0 0 .24 3.2 12.64 12.64 0 0 0 .72 2.13l-1.12 2.76a13.37 13.37 0 0 1-4.4-5c-2.52-5.1-1.2-11.24 1.94-15.3.67-.87 4.08-5.28 9.81-5.66 6.73-.45 12.6 4.92 13.85 10.15.68 3-.16 6.05-.97 6.23Z"
            class="color842e20 svgShape" />
        <path fill="#842e20"
            d="M127.25 33.29s-.48-12.55-5.4-9.85-9.9 12.64-.64 16.37 6.04-6.52 6.04-6.52Z"
            class="color842e20 svgShape" />
        <path fill="#842e20"
            d="M128.85 34.48c0-.47 0-.94.06-1.4s0-.92 0-1.39a22.42 22.42 0 0 0-.12-2.72 11.82 11.82 0 0 0-1.4-5 2.4 2.4 0 0 0-1.54-1.32 3.71 3.71 0 0 0-2.15.67 12 12 0 0 0-2.09 1.68c-.69.61-1.3 1.3-2 2h-.07a15.35 15.35 0 0 1 3.72-4.15 4.09 4.09 0 0 1 2.63-.9 3.16 3.16 0 0 1 2.2 1.66 11.54 11.54 0 0 1 1.33 5.4 23 23 0 0 1-.53 5.55Z"
            class="color842e20 svgShape" />
        <path fill="#898cfb"
            d="M127.87 55.23 141 59.52a22.1 22.1 0 0 1-2.71 5.62c-1.51 2.25-3.41 5.07-5.88 5-.29 0-1.14-.06-3.08-1.56a20.62 20.62 0 0 1-5.3-6.21 31.91 31.91 0 0 1 3.88-7.15Z"
            class="color898cfb svgShape" />
        <path fill="#898cfb"
            d="M124 63.15c-.9-1.84-3.7-9.9-2-13.52a2.91 2.91 0 0 1 2-1.72 2.84 2.84 0 0 1 2.68.48c2.05 1.7 1.71 6.46 1.7 6.66l-.88-.07c.09-1.24 0-4.74-1.38-5.91a2 2 0 0 0-1.89-.31 2.08 2.08 0 0 0-1.5 1.24c-1.41 3.08.91 10.47 2 12.77Z"
            class="color898cfb svgShape" />
        <path fill="#fccca8"
            d="M127.3 51.06s-1-2.88-2.72-2.68-2.4 2.62-2.51 3.71 1.2 5.21 1.2 5.21 2.03 2.36 4.03-6.24Z"
            class="colorfccca8 svgShape" />
        <path fill="#842e20"
            d="m129.68 44.52-3.28 8.07a12.33 12.33 0 0 0 4.15 1.59 12.67 12.67 0 0 0 6.36-.45l1.75-7.23-1.08 7.5a9.64 9.64 0 0 0 2.21.6 9.75 9.75 0 0 0 3.05 0 10.73 10.73 0 0 0 1.82-5.13 11.06 11.06 0 0 0-2.11-7.3 13.87 13.87 0 0 0-4.9-.65 14.38 14.38 0 0 0-7.97 3Z"
            class="color842e20 svgShape" />
        <path fill="#6f6ac7"
            d="M116.59 110.57c-.55 1-1.09 2.14-1.6 3.34a41 41 0 0 0-2.82 10.1c-7.37-2.23-20.78-5-26.41 1.76-6.36 7.66-11.69 28.53-12.76 47.57l-6.21-.55c.21-13.79 3.1-32.57 15.08-49.48 1.33-1.87 2.7-3.62 4.1-5.27 2.25-3.67 4.53-7.7 6.74-12.11a159.14 159.14 0 0 0 7.74-18.19c.53-1.6 1-3 1.36-4.36.21-.72.42-1.4.61-2l4.4.29s-7.95 19.78-5.1 23c2.07 2.23 10.1 4.06 14.87 5.9Z"
            opacity=".81" class="color6f6ac7 svgShape" />
        <g data-name="flask 2" fill="#000000" class="color000 svgShape">
            <path fill="#ece2d8"
                d="M111.79 123.3a1.88 1.88 0 0 1-3.27-1.86l4.68-8.21 1.74-3 .56-1 .07-.11a1.4 1.4 0 0 1 .1-.16l3.25 1.85-.09.17-.07.13-.57 1-1.73 3Z"
                class="colorece2d8 svgShape" />
            <path fill="#f8f1e8"
                d="M111.88 123.13a1.92 1.92 0 0 1-.86-.24 1.89 1.89 0 0 1-.7-2.57l4.68-8.21.41-.72a.81.81 0 0 1 1.11-.3l1.67 1 .57-1-2.38-1.37.16-.28-.87-.5a1.4 1.4 0 0 0-.1.16l-.47.82-.16.29-1.74 3-4.68 8.21a1.88 1.88 0 0 0 3.27 1.86Z"
                class="colorf8f1e8 svgShape" />
            <path fill="#2a1e4d" d="M115.21 114.99h.41v1.35h-.41z"
                transform="rotate(-60.03 115.43 115.663)" class="color2a1e4d svgShape" />
            <path fill="#2a1e4d" d="M114.51 116.19h.41v1.35h-.41z"
                transform="rotate(-60.03 114.73 116.875)" class="color2a1e4d svgShape" />
            <path fill="#2a1e4d" d="M113.82 117.4h.41v1.35h-.41z"
                transform="rotate(-60.03 114.027 118.073)" class="color2a1e4d svgShape" />
            <path fill="#2a1e4d" d="M113.12 118.61h.41v1.35h-.41z"
                transform="rotate(-60.03 113.335 119.29)" class="color2a1e4d svgShape" />
            <path fill="#2a1e4d" d="M112.43 119.81h.41v1.35h-.41z"
                transform="rotate(-60.03 112.64 120.493)" class="color2a1e4d svgShape" />
            <path fill="#2a1e4d" d="M111.73 121.02h.41v1.35h-.41z"
                transform="rotate(-60.03 111.945 121.696)" class="color2a1e4d svgShape" />
            <rect width=".71" height="4.84" x="116.76" y="107.72" fill="#ece2d8" rx=".3"
                transform="rotate(-60.34 117.117 110.142)" class="colorece2d8 svgShape" />
        </g>
        <path fill="#6f6ac7"
            d="m100.29 155.78-.87-.16 3-16.13c1.23-6.68 2-11 2.55-13.91 1-5.56 1-5.56 1.15-6a50.14 50.14 0 0 1 8.62-16.38c3.12-4.28 5.81-8 6.8-14.54a34 34 0 0 0-1.28-15.17l.85-.26a35 35 0 0 1 1.3 15.56c-1 6.79-3.77 10.56-7 14.93-2.88 4-6.15 8.44-8.49 16.11-.11.36-.12.42-1.12 5.88-.52 2.87-1.32 7.23-2.55 13.91Z"
            class="color6f6ac7 svgShape" />
        <path fill="#9186e9"
            d="M106.67 112.88a9.53 9.53 0 0 1 4.44-1.39 4.79 4.79 0 0 0 1.84-.2c.86-.29 1.36-.78 1.5-.64s-.41 1-.43 1.07a5.27 5.27 0 0 1-1.94 1.7c-2.33 1.14-5.28-.42-5.41-.54Z"
            class="color9186e9 svgShape" />
        <path fill="#9186e9"
            d="M116 118.74c.19.3-.24.86-.44 1.06a1.86 1.86 0 0 1-1.63.53l-.69-.17a1 1 0 0 1 .41.28 1.18 1.18 0 0 1 0 1.43.65.65 0 0 1-.77.28l-1.34-.42c-.94-.3-2-.67-3.14-1.07l-6.14-2.88c.27-1.55.54-3.11.83-4.67a28.56 28.56 0 0 1 9 .28c.76.14 1.47.3 2.15.49l1.66.74.93.42a.71.71 0 0 1 .4.87l-.19.58a.72.72 0 0 1-.91.41l-1-.33-.21-.07a1 1 0 0 1 .2.08l.84.32a.86.86 0 0 1 .52 1.08 1.18 1.18 0 0 1-.48.76Z"
            class="color9186e9 svgShape" />
        <path fill="#898cfb"
            d="M109.45 74.31a6 6 0 0 0-4.5-3.62c-1.94-.23-3.42.94-8.45 6.1-.67.69-10.24 10.58-14.18 17.35l-.5.88c-2 3.74-3 5.62-3 7.36.28 9.93 20.13 15.94 22.22 16.56a6.7 6.7 0 0 0 3-2 7.22 7.22 0 0 0 1.33-5.9l-13.22-9.67a70.16 70.16 0 0 0 13.93-15.78c3.97-6.28 4.28-9.16 3.37-11.28Z"
            class="color898cfb svgShape" />
        <path fill="#4a31a1"
            d="M115.86 114.62l.93.42a.71.71 0 01.4.87l-.19.58a.72.72 0 01-.91.41l-1-.33a20.4 20.4 0 00.77-1.95zM116 118.74c.19.3-.24.86-.44 1.06a1.86 1.86 0 01-1.63.53l-.69-.17a1 1 0 01.41.28 1.18 1.18 0 010 1.43.65.65 0 01-.77.28l-1.34-.42a8.3 8.3 0 001.51-1.61 18.11 18.11 0 002-3.53l.84.32a.86.86 0 01.52 1.08 1.18 1.18 0 01-.41.75z"
            opacity=".45" class="color4a31a1 svgShape" />
        <path fill="#6f6ac7"
            d="M129.89 58.08a7.7 7.7 0 0 1 3.23 0 8.3 8.3 0 0 1 2.49 1 8.8 8.8 0 0 1 2 1.65 10.46 10.46 0 0 1 .84 1.09 13.57 13.57 0 0 0 .9 1.31v.26a6.11 6.11 0 0 1-2.68-.75c-.84-.39-1.64-.83-2.44-1.28s-1.54-1-2.3-1.48-1.5-1-2.22-1.6ZM137.64 66a4.91 4.91 0 0 1-2.87.54 5.41 5.41 0 0 1-2.26-.76 5.5 5.5 0 0 1-1.68-1.65 5.65 5.65 0 0 1-.88-2.73l.15-.22c.64.38 1.27.77 1.9 1.18s1.26.78 1.9 1.16 1.26.79 1.9 1.16 1.29.73 1.95 1.08ZM135.66 68.57a4.57 4.57 0 0 1-2.43.65 3.37 3.37 0 0 1-1.78-.54 3.48 3.48 0 0 1-1.24-1.38 4.83 4.83 0 0 1-.47-2.46l.15-.21c.51.29 1 .59 1.49.9l1.49.92c.95.66 2 1.23 2.92 1.89Z"
            class="color6f6ac7 svgShape" />
        <path fill="#6f6ac7"
            d="M125.29 97.53c-.21.32-.44.65-.68 1l-1.79 2.47a44.86 44.86 0 0 1-5-.69 14.28 14.28 0 0 0 4.12-1 14.87 14.87 0 0 0 3.35-1.78Z"
            opacity=".55" class="color6f6ac7 svgShape" />
        <path fill="#6f6ac7"
            d="M121.68 73.93c-.12-1.39-.23-2.79-.35-4.19l-3.68-4.9-3.8 2.55s2.45 7.05 7.83 6.54Z"
            class="color6f6ac7 svgShape" />
        <path fill="#6f6ac7" d="m121.08 74 2.62-4 1.52-.65V72s-.66 2.45-4.14 2Z"
            class="color6f6ac7 svgShape" />
        <path fill="#ffffff" d="M107.63 90.39h9.61v1.43h-9.61z"
            transform="rotate(14.88 112.403 91.087)" class="colorfff svgShape" />
        <path fill="#6f6ac7"
            d="m102 175.91-2.88-.25 1.17-21.46c1.42-9.38 3-18.34 4.81-26.87-.03 0-3.85 32.22-3.1 48.58Z"
            class="color6f6ac7 svgShape" />
    </g>
</svg>